<svg width="32" height="32" viewBox="0 0 32 32" fill="none" xmlns="http://www.w3.org/2000/svg">
<path d="M16.1824 7.66699H15.8157C15.3737 7.66699 14.9497 7.84259 14.6372 8.15515C14.3246 8.46771 14.149 8.89163 14.149 9.33366V9.48366C14.1487 9.77593 14.0716 10.063 13.9253 10.316C13.779 10.5691 13.5688 10.7792 13.3157 10.9253L12.9574 11.1337C12.704 11.2799 12.4166 11.357 12.124 11.357C11.8315 11.357 11.5441 11.2799 11.2907 11.1337L11.1657 11.067C10.7832 10.8464 10.3289 10.7865 9.90236 10.9006C9.47583 11.0146 9.11198 11.2933 8.89069 11.6753L8.70736 11.992C8.48674 12.3744 8.42689 12.8288 8.54095 13.2553C8.655 13.6819 8.93364 14.0457 9.31569 14.267L9.44069 14.3503C9.69259 14.4958 9.90204 14.7046 10.0482 14.956C10.1944 15.2075 10.2723 15.4928 10.274 15.7837V16.2087C10.2752 16.5023 10.1987 16.7911 10.0524 17.0457C9.90606 17.3004 9.69503 17.5118 9.44069 17.6587L9.31569 17.7337C8.93364 17.955 8.655 18.3188 8.54095 18.7453C8.42689 19.1719 8.48674 19.6262 8.70736 20.0087L8.89069 20.3253C9.11198 20.7074 9.47583 20.986 9.90236 21.1001C10.3289 21.2141 10.7832 21.1543 11.1657 20.9337L11.2907 20.867C11.5441 20.7207 11.8315 20.6437 12.124 20.6437C12.4166 20.6437 12.704 20.7207 12.9574 20.867L13.3157 21.0753C13.5688 21.2215 13.779 21.4316 13.9253 21.6846C14.0716 21.9377 14.1487 22.2247 14.149 22.517V22.667C14.149 23.109 14.3246 23.5329 14.6372 23.8455C14.9497 24.1581 15.3737 24.3337 15.8157 24.3337H16.1824C16.6244 24.3337 17.0483 24.1581 17.3609 23.8455C17.6734 23.5329 17.849 23.109 17.849 22.667V22.517C17.8493 22.2247 17.9265 21.9377 18.0727 21.6846C18.219 21.4316 18.4292 21.2215 18.6824 21.0753L19.0407 20.867C19.2941 20.7207 19.5815 20.6437 19.874 20.6437C20.1666 20.6437 20.454 20.7207 20.7074 20.867L20.8324 20.9337C21.2148 21.1543 21.6692 21.2141 22.0957 21.1001C22.5222 20.986 22.8861 20.7074 23.1074 20.3253L23.2907 20.0003C23.5113 19.6179 23.5712 19.1635 23.4571 18.737C23.343 18.3105 23.0644 17.9466 22.6824 17.7253L22.5574 17.6587C22.303 17.5118 22.092 17.3004 21.9457 17.0457C21.7993 16.7911 21.7229 16.5023 21.724 16.2087V15.792C21.7229 15.4983 21.7993 15.2095 21.9457 14.9549C22.092 14.7003 22.303 14.4888 22.5574 14.342L22.6824 14.267C23.0644 14.0457 23.343 13.6819 23.4571 13.2553C23.5712 12.8288 23.5113 12.3744 23.2907 11.992L23.1074 11.6753C22.8861 11.2933 22.5222 11.0146 22.0957 10.9006C21.6692 10.7865 21.2148 10.8464 20.8324 11.067L20.7074 11.1337C20.454 11.2799 20.1666 11.357 19.874 11.357C19.5815 11.357 19.2941 11.2799 19.0407 11.1337L18.6824 10.9253C18.4292 10.7792 18.219 10.5691 18.0727 10.316C17.9265 10.063 17.8493 9.77593 17.849 9.48366V9.33366C17.849 8.89163 17.6734 8.46771 17.3609 8.15515C17.0483 7.84259 16.6244 7.66699 16.1824 7.66699Z" stroke="#4353FF" stroke-width="1.25" stroke-linecap="round" stroke-linejoin="round"/>
<path d="M16 18.5C17.3807 18.5 18.5 17.3807 18.5 16C18.5 14.6193 17.3807 13.5 16 13.5C14.6193 13.5 13.5 14.6193 13.5 16C13.5 17.3807 14.6193 18.5 16 18.5Z" stroke="#4353FF" stroke-width="1.25" stroke-linecap="round" stroke-linejoin="round"/>
</svg>
